<svg width="78" height="78" viewBox="0 0 78 78" fill="none" xmlns="http://www.w3.org/2000/svg">
<g clip-path="url(#clip0_277_21)">
<path d="M4.51487 35.4079C4.51487 27.7105 4.26407 20.2697 4.26407 12.5724C4.51487 11.5461 4.76568 10.0066 6.0197 8.46711C7.02291 6.92763 8.52774 5.90132 9.02934 6.15789C9.28015 6.41447 8.77854 7.44079 9.28015 8.21053C9.78176 8.72368 10.5342 8.72368 11.0358 8.72368C23.576 8.46711 36.367 8.21053 48.9072 8.21053C50.412 7.95395 51.4152 7.44079 51.9168 7.18421C52.92 6.41447 52.92 5.64474 54.9264 3.07895C55.9297 1.79605 56.1805 1.53947 56.4313 1.28289C57.6853 0.513158 58.9393 0.256579 59.4409 0.256579C61.949 0 67.9682 0 76.2448 0C76.7464 11.5461 77.4988 22.8355 78.0004 34.3816C77.7496 35.6645 77.248 37.4605 76.2448 39.5132C74.2383 44.1316 72.2319 46.4408 67.9683 51.5724C59.6917 61.5789 58.4377 64.1447 53.6724 67.2237C51.4152 68.7632 49.4088 69.2763 48.6564 69.7895C44.6435 71.3289 40.8814 71.5855 38.6242 71.3289C37.8718 71.3289 36.6178 71.5855 35.1129 72.0987C34.1097 72.6118 33.3573 73.125 32.3541 73.8947C31.1001 74.9211 30.8493 75.1776 30.3477 75.6908C28.8428 76.9737 27.0872 77.2303 25.5824 77.4868C22.5728 78 14.0454 78.2566 2.75925 78C2.50844 78 0.752817 77.4868 0.251209 75.9474C-0.501203 74.4079 0.502013 71.8421 3.01005 71.0724C4.51487 71.0724 6.77211 71.0724 8.77854 69.7895C9.78176 69.2763 10.5342 68.5066 11.2866 67.7368C12.039 66.9671 13.5438 65.4276 14.7978 62.8618C15.2994 61.8355 15.5502 60.8092 15.801 60.0395C15.801 55.4211 15.5502 51.0592 15.5502 46.4408C15.2994 44.3882 14.547 43.3618 14.0454 43.1053C13.0422 42.3355 12.039 42.8487 9.53095 42.3355C8.27693 42.0789 7.02291 41.8224 6.2705 41.0526C4.26407 39.2566 4.26407 36.4342 4.51487 35.4079Z" fill="#F90101"/>
</g>
<defs>
<clipPath id="clip0_277_21">
<rect width="78" height="78" fill="white"/>
</clipPath>
</defs>
</svg>
