<svg width="59" height="80" viewBox="0 0 59 80" fill="none" xmlns="http://www.w3.org/2000/svg">
<path d="M0 16.2217C2.40816 15.0201 5.41837 12.0161 8.42857 7.81046C10.2347 4.80644 11.4388 1.80241 12.6429 0C21.0714 0 30.102 0.600805 39.1327 0.600805C37.9286 4.20563 39.1327 8.41127 42.1429 10.8145C44.551 13.2177 48.1633 13.2177 48.7653 13.2177C52.3776 13.2177 55.9898 13.2177 59 13.2177C59 28.8386 58.398 44.4596 58.398 60.0805C53.5816 62.4837 50.5714 64.8869 48.1633 66.6894C46.3571 67.891 43.3469 70.895 39.1327 74.4998C35.5204 78.1046 34.9184 78.7054 33.7143 79.3063C31.3061 80.5079 30.102 79.9071 22.8776 79.3063C13.8469 78.7054 12.6429 78.7054 10.8367 76.903C8.42857 75.1006 7.82653 72.6974 7.22449 70.895C6.02041 67.2902 6.62245 64.2861 7.22449 60.0805C7.82653 57.0765 7.82653 52.27 7.22449 46.262C4.81633 46.8628 2.40816 46.262 0 46.262C0 36.0483 0 26.4354 0 16.2217Z" fill="#657AE4"/>
</svg>
