<svg width="50" height="80" viewBox="0 0 50 80" fill="none" xmlns="http://www.w3.org/2000/svg">
<path d="M1.92239 3.97164C1.92239 3.97164 1.37395 4.53901 1.55676 5.29551C1.73956 6.05201 2.28799 6.24114 2.28799 6.24114C0.277142 7.37589 -0.454088 9.83452 0.277131 11.7258C1.00835 13.4279 2.8364 14.3735 4.84725 13.9953C5.03005 14.1844 5.76128 15.3191 7.22371 15.5083C8.50335 15.6974 9.78299 15.13 10.5142 13.9953C11.2454 13.8061 11.9766 13.4279 12.7079 13.0496C13.9875 12.2931 15.0843 11.5366 15.6327 10.7801C16.1812 10.591 16.9124 10.591 17.4608 10.9693C18.3748 11.3475 18.5576 12.4823 18.7404 12.8605C19.2888 14.7518 20.2029 25.9102 21.1169 40.8511C20.9341 41.0402 19.2888 42.1749 18.9232 44.4444C18.7404 46.3357 19.6544 47.8487 20.02 48.0378C20.2028 50.3073 20.2028 52.3877 20.3856 54.6572C20.2028 54.6572 18.9232 55.0355 18.192 56.1702C17.8264 56.9267 17.6436 57.6832 17.8264 58.0615C18.3748 65.4374 18.9232 72.6241 19.4716 80C25.687 78.8653 31.7195 77.9196 37.9349 76.7849C38.1177 76.5957 38.3005 76.2175 38.3005 75.6501C38.3005 75.0827 38.3005 74.7045 38.1177 74.5154C38.6661 74.3262 39.2145 74.1371 39.763 73.5697C40.3114 73.1915 40.8598 72.8132 41.2254 72.435C41.2254 72.2459 40.3114 69.5981 41.7738 67.5177C43.0534 65.8156 45.2471 64.87 47.2579 65.4373C47.2579 65.6265 47.6236 66.5721 48.5376 66.9504C49.086 67.3286 49.6344 67.1395 50 67.1395C49.2688 56.7376 48.3548 46.3357 47.6236 35.9338C47.0751 36.1229 46.1611 36.5012 45.2471 37.2577C44.1503 38.2033 43.6019 39.3381 43.419 39.9054C39.3973 40.6619 35.3756 41.4184 31.1711 42.3641C30.8055 41.7967 30.0743 41.0402 29.3431 40.2837C28.6119 39.5272 27.6978 38.9598 27.1494 38.5816C27.3322 38.0142 27.8807 36.5012 27.515 34.6099C27.1494 32.3404 25.5042 31.0165 25.1386 30.6383C24.5902 20.4255 23.8589 10.2128 23.3105 0C16.364 1.32388 9.05177 2.64776 1.92239 3.97164Z" fill="#C20E0D"/>
</svg>
