<svg width="59" height="80" viewBox="0 0 59 80" fill="none" xmlns="http://www.w3.org/2000/svg">
<path d="M5.2073 74.0294C4.96389 68.9117 4.72048 63.5807 4.72048 58.0366C4.72048 50.5733 4.72047 43.3232 4.96388 36.4996C4.47707 34.154 4.96389 32.8746 5.4507 32.2349C6.18092 31.3819 7.15455 30.7422 7.64136 29.4628C7.88477 28.8231 7.88476 28.3966 7.88476 27.9701C7.88476 27.7569 7.64134 27.3304 7.39794 26.9039C6.66772 25.6245 5.20729 24.9848 4.47708 24.5583C2.77323 23.7054 2.28642 22.4259 1.06939 20.0803C-1.60808 14.9626 1.55621 9.20522 1.79961 8.77875C4.96389 3.02134 11.049 1.31544 12.9963 0.675732C14.9435 0.249257 18.3512 -0.603692 22.0023 0.675732C26.3836 2.16839 28.0874 5.79342 29.3045 7.92579C31.4951 12.4038 31.0083 16.6685 30.7649 18.5877C30.7649 19.2274 30.7649 20.0803 31.4951 20.9333C32.2253 21.573 32.9556 21.573 35.3896 21.573C40.0143 21.3597 40.2577 20.5068 41.9616 20.9333C42.6918 21.1465 43.9088 22.2127 46.5863 24.5583C48.5335 26.2642 49.0203 26.9039 49.994 26.9039C50.9676 26.9039 51.6978 26.6907 53.6451 26.9039C54.1319 26.9039 54.3753 27.1172 54.6187 27.1172C54.6187 33.9407 54.6187 40.5511 54.6187 47.3747C58.0264 49.5071 59 51.4262 59 52.7056C59 52.9189 59 52.9189 59 54.4115C59 59.1027 59 59.5292 58.7566 60.1689C58.5132 61.4484 57.2961 62.3013 54.8621 64.0072C50.2374 67.8455 47.3165 69.9778 44.1522 69.5514C42.9352 69.3381 42.6918 68.9117 40.5012 68.6984C38.5539 68.4852 37.0935 68.0587 35.633 68.6984C34.6594 69.1249 34.416 69.3381 31.4951 72.5367C29.3045 74.8823 28.8177 75.3088 28.3309 75.522C26.627 76.5882 24.6798 77.0147 23.4627 77.2279C18.5946 78.0809 13.4831 78.9338 8.61497 80C8.37156 79.7868 8.37157 79.5735 8.12816 79.3603C7.88476 78.9338 8.12816 78.5073 8.12816 78.0809C8.12816 78.0809 8.12817 77.2279 7.64136 76.375C7.39795 74.8823 6.18092 74.4558 5.2073 74.0294Z" fill="#5F3C23"/>
</svg>
