<svg width="80" height="53" viewBox="0 0 80 53" fill="none" xmlns="http://www.w3.org/2000/svg">
<g clip-path="url(#clip0_277_24)">
<path d="M80 0C62.5287 0 45.5172 0 28.5057 0.46087C26.2069 0 22.9885 0.46087 19.7701 2.30435C15.1724 4.6087 13.7931 8.29565 9.1954 16.1304C7.35632 18.8957 5.05747 23.0435 1.37931 28.113C0.91954 31.3391 0.91954 34.5652 0.45977 37.7913C0.45977 41.9391 0 46.087 0 49.7739C0 50.2348 1.83908 52.5391 4.5977 53C6.89655 53.4609 9.65517 52.5391 11.0345 50.2348C11.954 48.8522 13.3333 46.5478 15.6322 44.7043C18.8506 42.4 22.069 42.4 24.3678 42.8609C32.1839 42.8609 37.7012 44.2435 44.1379 45.6261C56.5517 47.9304 61.6092 47.4696 66.2069 45.6261C69.8851 44.2435 71.2644 42.4 72.1839 41.4783C73.1034 40.5565 74.023 38.713 74.9425 34.5652C75.4023 31.8 75.4023 28.5739 74.4828 17.513C74.023 13.3652 74.023 11.0609 75.4023 9.21739C76.7816 7.83478 78.6207 7.37391 80 7.37391" fill="#2A4BAA"/>
</g>
<defs>
<clipPath id="clip0_277_24">
<rect width="80" height="53" fill="white"/>
</clipPath>
</defs>
</svg>
