<svg width="506" height="257" viewBox="0 0 506 257" fill="none" xmlns="http://www.w3.org/2000/svg">
<path d="M1 105V256H505V160.5H483V155H463L412 161.5L396 168.5L360 173V195L303.5 200L292.5 206.5H290V189L283 188V174.5L280.5 173L276.5 172V171L283 168.5V145L275 143L273 142L283 138.5V115H279L273.5 113.5L273 112.5L279 110L283 109V86L279 86.5L273 85V83L279 81L283 80.5V57L275.5 57.5L273 57V54.5L275.5 52.5H279L283 51.5V5L279 1H264.5L258.5 7H240L229 13.5L228.5 92.5H209.5V78H190L189 64L174.5 60.5V54H92V61.5L78 64V79L81.5 83V85.5H63.5L47 92V101.5H10L1 105Z" stroke="black"/>
</svg>
