<svg width="793" height="404" viewBox="0 0 793 404" fill="none" xmlns="http://www.w3.org/2000/svg">
<path d="M120.5 390.52V403.02H792V319.52L680.5 296.52C694.295 281.858 700.789 273.222 708.5 256.52C684.87 249.753 671.574 245.775 647 235.52C660.467 231.388 679.487 231.968 712.696 232.98L714 233.02C686.778 221.278 669.866 215.262 629.5 208.02L635.5 186.52C605.276 180.605 588.564 174.612 559.5 158.52C556.575 141.628 562.138 131.377 586.5 111.52C554.237 98.9908 536.019 94.188 503 90.5199C499.488 61.2898 496.37 44.8803 512.5 16.0199C407.08 -11.7057 306.71 -7.44715 276 84.0199C242.975 83.1946 225.514 81.8565 201 74.0199C193.36 108.476 195.108 126.163 204.5 156.02C186.497 157.635 171.139 157.674 134 156.02C128.393 190.763 137.19 207.826 161.5 236.52C131.458 248.627 103.845 253.201 50.5 260.52C53.124 285.454 68.9924 294.865 104 309.52C66.6781 324.257 44.2702 332.228 2 346.02C46.8436 368.212 72.9216 377.576 120.5 390.52Z" stroke="black"/>
</svg>
