<svg width="810" height="552" viewBox="0 0 810 552" fill="none" xmlns="http://www.w3.org/2000/svg">
<path d="M3.29167 405.479L1 551H809.194L803.847 411.972C796.095 338.894 797.895 296.9 733.569 233.222L669.021 253.847V234.368C668.401 189.891 659.37 170.611 632.736 143.083V63.2569C620.687 56.5245 614.421 52.055 612.875 30.4097V1H606L604.472 169.438L583.847 185.097C554.036 83.1093 529.993 21.2431 414.264 21.2431C298.535 21.2431 263.033 76.0233 238.187 185.097L216.035 167.91V1.38194H211.069C208.289 31.6716 203.81 44.0643 189.681 56.3819V138.118C169.986 152.114 162.298 163.443 154.542 189.681L145.757 250.028C119.218 246.394 105.309 241.139 81.2083 229.403C27.4257 287.576 10.967 326.394 3.29167 405.479Z" stroke="black"/>
</svg>
