<svg width="1052" height="385" viewBox="0 0 1052 385" fill="none" xmlns="http://www.w3.org/2000/svg">
<path d="M98.5 131.5H1V384H1051V155L1031.5 139V96L1017 78.5L1002.5 68.5L969 63L958.5 47H891.5L877.5 74L864 80L849 98.5V145.5L831 154.5V166.5H733.5V111.5L721.5 100H660.5V88.5L653 82V65L641 54H612L600.5 58L480.5 57V44L468 32L421.5 10L405.5 18.5L405 1H388L383.5 8L384 30H339L331 23.5H299L289 30H247.5L240.5 23.5H208.5L199 30H157L149.5 23.5H117L104 35V50.5L106.5 60L98.5 65V131.5Z" stroke="black"/>
</svg>
