<svg width="758" height="384" viewBox="0 0 758 384" fill="none" xmlns="http://www.w3.org/2000/svg">
<path d="M1 157V383.5H757V240.25H724V232H694L617.5 241.75L593.5 252.25L539.5 259V292L454.75 299.5L438.25 309.25H434.5V283L424 281.5V261.25L420.25 259L414.25 257.5V256L424 252.25V217L412 214L409 212.5L424 207.25V172H418L409.75 169.75L409 168.25L418 164.5L424 163V128.5L418 129.25L409 127V124L418 121L424 120.25V85L412.75 85.75L409 85V81.25L412.75 78.25H418L424 76.75V7L418 1H396.25L387.25 10H359.5L343 19.75L342.25 138.25H313.75V116.5H284.5L283 95.5L261.25 90.25V80.5H137.5V91.75L116.5 95.5V118L121.75 124V127.75H94.75L70 137.5V151.75H14.5L1 157Z" stroke="black"/>
</svg>
